<svg width="30" height="30" viewBox="0 0 30 30" fill="none" xmlns="http://www.w3.org/2000/svg">
<rect width="30" height="30" rx="15" fill="#D7DED5"/>
<g clip-path="url(#clip0_29_32)">
<path d="M23.3334 15.0001C23.3334 10.4001 19.6001 6.66675 15.0001 6.66675C10.4001 6.66675 6.66675 10.4001 6.66675 15.0001C6.66675 19.0334 9.53341 22.3917 13.3334 23.1667V17.5001H11.6667V15.0001H13.3334V12.9167C13.3334 11.3084 14.6417 10.0001 16.2501 10.0001H18.3334V12.5001H16.6667C16.2084 12.5001 15.8334 12.8751 15.8334 13.3334V15.0001H18.3334V17.5001H15.8334V23.2917C20.0417 22.8751 23.3334 19.3251 23.3334 15.0001Z" fill="#395A33"/>
</g>
<defs>
<clipPath id="clip0_29_32">
<rect width="20" height="20" fill="white" transform="translate(5 5)"/>
</clipPath>
</defs>
</svg>
