<svg width="49" height="24" viewBox="0 0 49 24" fill="none" xmlns="http://www.w3.org/2000/svg">
<path d="M0.939463 10.9395C0.353679 11.5252 0.353679 12.475 0.939463 13.0608L10.4854 22.6067C11.0712 23.1925 12.0209 23.1925 12.6067 22.6067C13.1925 22.0209 13.1925 21.0712 12.6067 20.4854L4.12144 12.0001L12.6067 3.51484C13.1925 2.92905 13.1925 1.97931 12.6067 1.39352C12.0209 0.807734 11.0712 0.807734 10.4854 1.39352L0.939463 10.9395ZM47.0001 10.5001L2.00012 10.5001V13.5001L47.0001 13.5001V10.5001Z" fill="#395A33"/>
<path d="M48.0607 13.0607C48.6464 12.4749 48.6464 11.5251 48.0607 10.9393L38.5147 1.3934C37.9289 0.807615 36.9792 0.807615 36.3934 1.3934C35.8076 1.97919 35.8076 2.92894 36.3934 3.51472L44.8787 12L36.3934 20.4853C35.8076 21.0711 35.8076 22.0208 36.3934 22.6066C36.9792 23.1924 37.9289 23.1924 38.5147 22.6066L48.0607 13.0607ZM2 13.5L47 13.5L47 10.5L2 10.5L2 13.5Z" fill="#395A33"/>
</svg>
