<svg width="34" height="34" viewBox="0 0 34 34" fill="none" xmlns="http://www.w3.org/2000/svg">
<rect x="2" y="2" width="30" height="30" rx="15" fill="#D7DED5"/>
<path d="M14.1705 17.0434C14.1705 15.4773 15.4394 14.2074 17.0051 14.2074C18.5708 14.2074 19.8404 15.4773 19.8404 17.0434C19.8404 18.6096 18.5708 19.8795 17.0051 19.8795C15.4394 19.8795 14.1705 18.6096 14.1705 17.0434ZM12.6378 17.0434C12.6378 19.4562 14.5931 21.412 17.0051 21.412C19.4171 21.412 21.3724 19.4562 21.3724 17.0434C21.3724 14.6307 19.4171 12.6749 17.0051 12.6749C14.5931 12.6749 12.6378 14.6307 12.6378 17.0434ZM20.5246 12.5017C20.5246 12.7036 20.5843 12.901 20.6964 13.069C20.8085 13.2369 20.9678 13.3678 21.1543 13.4451C21.3408 13.5225 21.546 13.5428 21.744 13.5035C21.942 13.4642 22.1239 13.367 22.2667 13.2243C22.4094 13.0816 22.5067 12.8997 22.5462 12.7017C22.5856 12.5037 22.5655 12.2984 22.4883 12.1118C22.4112 11.9252 22.2804 11.7657 22.1126 11.6535C21.9448 11.5412 21.7475 11.4813 21.5457 11.4812H21.5453C21.2747 11.4813 21.0152 11.5889 20.8239 11.7802C20.6325 11.9716 20.5249 12.2311 20.5246 12.5017ZM13.569 23.9684C12.7398 23.9306 12.2891 23.7925 11.9896 23.6757C11.5925 23.5211 11.3092 23.3369 11.0113 23.0394C10.7134 22.7418 10.529 22.4587 10.3751 22.0615C10.2584 21.762 10.1203 21.311 10.0826 20.4816C10.0413 19.5848 10.0331 19.3154 10.0331 17.0435C10.0331 14.7716 10.042 14.503 10.0826 13.6054C10.1203 12.776 10.2595 12.3259 10.3751 12.0256C10.5297 11.6284 10.7138 11.3449 11.0113 11.047C11.3088 10.749 11.5918 10.5646 11.9896 10.4106C12.289 10.2938 12.7398 10.1557 13.569 10.118C14.4655 10.0767 14.7348 10.0685 17.0051 10.0685C19.2753 10.0685 19.5449 10.0774 20.4422 10.118C21.2714 10.1557 21.7213 10.2949 22.0216 10.4106C22.4187 10.5646 22.702 10.7494 22.9999 11.047C23.2978 11.3445 23.4815 11.6284 23.6361 12.0256C23.7528 12.325 23.891 12.776 23.9287 13.6054C23.9699 14.503 23.9781 14.7716 23.9781 17.0435C23.9781 19.3154 23.9699 19.5841 23.9287 20.4816C23.8909 21.311 23.7521 21.7619 23.6361 22.0615C23.4815 22.4587 23.2974 22.7421 22.9999 23.0394C22.7024 23.3367 22.4187 23.5211 22.0216 23.6757C21.7222 23.7925 21.2714 23.9307 20.4422 23.9684C19.5457 24.0096 19.2764 24.0179 17.0051 24.0179C14.7338 24.0179 14.4653 24.0096 13.569 23.9684ZM13.4986 8.58741C12.5932 8.62866 11.9745 8.77226 11.4342 8.98257C10.8746 9.19975 10.4009 9.49112 9.92756 9.96386C9.4542 10.4366 9.16367 10.9112 8.94655 11.4709C8.73631 12.0117 8.59274 12.6303 8.55151 13.5359C8.50959 14.4431 8.5 14.7331 8.5 17.0434C8.5 19.3538 8.50959 19.6438 8.55151 20.5509C8.59274 21.4567 8.73631 22.0752 8.94655 22.616C9.16367 23.1754 9.45427 23.6505 9.92756 24.123C10.4009 24.5956 10.8746 24.8865 11.4342 25.1043C11.9755 25.3146 12.5932 25.4582 13.4986 25.4995C14.4059 25.5407 14.6954 25.551 17.0051 25.551C19.3148 25.551 19.6047 25.5414 20.5116 25.4995C21.4171 25.4582 22.0354 25.3146 22.576 25.1043C23.1352 24.8865 23.6093 24.5958 24.0826 24.123C24.556 23.6503 24.8459 23.1754 25.0636 22.616C25.2739 22.0752 25.4181 21.4566 25.4587 20.5509C25.4999 19.6431 25.5095 19.3538 25.5095 17.0434C25.5095 14.7331 25.4999 14.4431 25.4587 13.5359C25.4175 12.6302 25.2739 12.0114 25.0636 11.4709C24.8459 10.9115 24.5552 10.4374 24.0826 9.96386C23.61 9.49037 23.1352 9.19975 22.5767 8.98257C22.0354 8.77226 21.417 8.62797 20.5123 8.58741C19.6054 8.54617 19.3155 8.53589 17.0058 8.53589C14.6961 8.53589 14.4059 8.54549 13.4986 8.58741Z" fill="#395A33"/>
</svg>
