<?xml version="1.0" encoding="utf-8"?>
<!-- Generator: Adobe Illustrator 26.0.1, SVG Export Plug-In . SVG Version: 6.00 Build 0)  -->
<svg version="1.1" id="Layer_1" xmlns="http://www.w3.org/2000/svg" xmlns:xlink="http://www.w3.org/1999/xlink" x="0px" y="0px"
	 viewBox="0 0 292 101" style="enable-background:new 0 0 292 101;" xml:space="preserve">
<style type="text/css">
	.st0{fill:#CE7028;}
	.st1{fill:#2B5C2D;}
</style>
<g>
	<polygon class="st0" points="72.7,45.5 80.3,45.5 78.1,43.5 66.2,32.4 58.4,25.1 54.2,21.2 50.5,17.7 46.7,21.2 34.7,32.4 
		22.9,43.5 20.7,45.5 28.2,45.5 50.5,24.7 	"/>
	<g>
		<path class="st1" d="M51.3,5.9c-22.6,0-41.1,17.5-42.8,39.6c-0.1,1.1-0.1,2.2-0.1,3.3c0,23.7,19.3,42.9,42.9,42.9c1,0,2,0,3-0.1
			l0.9,4.5l6.4-5.6l4.7-4.1l-4.9-1.7l-9-3.1l0.9,4.4c-0.6,0-1.3,0.1-1.9,0.1C30.7,86.1,14,69.4,14,48.8c0-1.1,0-2.2,0.1-3.3
			c1.7-19,17.7-34,37.2-34c20.6,0,37.3,16.7,37.3,37.3c0,10.8-4.6,20.6-12,27.4L72.1,72l-3.8-3.5l-8.5-8l2.8-2.6l1.4-1.3l2.3-2.2
			l1.1-1l2.7-2.5l-3.8-3.5l-3.8-3.5l-0.4-0.4l0,0L58.4,40l0,0l-4.2-3.9l-3.8-3.5l-2.3,2.2l-0.7,0.7l-0.7,0.7l-2.3,2.2l-1.4,1.3
			l-0.6,0.6l0,0l-2.1,2l-3.6,3.3l-0.2,0.2l-4.9,4.5l-0.1,0.1l0,7v17.2h16v-5.1l0-4.4v-7.8l0.7-0.6l3.8-3.5l2.8-2.6L50.9,47l-2.8,2.6
			l-0.7,0.6l-3.1,2.9l-2,1.9v14.4h-5.7V52.5l3.6-3.3l2.1-2h0l1.6-1.5l2.8-2.6l0.7-0.7l0.7-0.7l2.3-2.2l4.2,3.9l3.8,3.5l4.2,3.9
			l-2.3,2.2l-1.4,1.3L56.1,57l-3.8,3.5l16.1,15l4.3,4l4.2,3.9c1.4-1,2.7-2.1,4-3.3c8.3-7.8,13.5-18.9,13.5-31.2
			C94.2,25.1,75,5.9,51.3,5.9z"/>
		<g>
			<g>
				<path class="st1" d="M124.3,55.5c2.8-1,5-2.7,6.7-5.1c1.7-2.4,2.6-5.1,2.6-8c0-3.9-1.4-7.2-4.1-9.9c-2.8-2.7-6.1-4.1-9.9-4.1
					h-18v5.6h18c2.2,0,4.1,0.8,5.7,2.4c1.6,1.6,2.4,3.6,2.4,5.9c0,2.3-0.8,4.3-2.4,6c-1.6,1.7-3.5,2.5-5.7,2.5H115l3.2,5.4h0
					l10.1,17.3h6.6L124.3,55.5z"/>
				<path class="st1" d="M150.4,67.9V53.6h19V48h-19V34.1H171v-5.7h-26.6v45.1h26.9v-5.7H150.4z"/>
				<path class="st1" d="M210.5,58.8c-0.2-0.8-0.4-1.6-0.7-2.2c-0.2-0.6-0.7-1.3-1.2-1.9c-0.6-0.6-1.1-1.1-1.5-1.6
					c-0.4-0.5-1.1-0.9-2-1.4c-0.9-0.5-1.6-0.8-2.1-1.1c-0.5-0.2-1.3-0.6-2.4-1c-1.1-0.4-1.9-0.7-2.4-0.9c-0.5-0.2-1.4-0.5-2.6-0.9
					c-3.5-1.1-5.9-2.2-7.3-3.2c-1.4-1-2.1-2.5-2.1-4.5c0-2,0.8-3.7,2.3-4.9c1.5-1.2,3.5-1.8,5.9-1.8c4.9,0,8.3,2.3,10.3,7l5-2.9
					c-1.3-3-3.3-5.3-6-7.1c-2.6-1.8-5.7-2.7-9.3-2.7c-3.9,0-7.3,1.2-10,3.4c-2.7,2.3-4.1,5.4-4.1,9.3c0,1.6,0.3,3.1,0.9,4.4
					c0.6,1.3,1.2,2.3,2,3.1c0.7,0.8,1.8,1.6,3.3,2.3c1.5,0.8,2.7,1.3,3.7,1.6c1,0.3,2.4,0.9,4.3,1.5c3.8,1.2,6.6,2.3,8.2,3.4
					c1.6,1.1,2.4,2.7,2.4,4.8c0,2.1-0.8,3.8-2.4,5c-1.6,1.3-4,1.9-7.1,1.9c-6.3,0-10.3-2.7-12.1-8.2l-5.2,3c1.2,3.4,3.3,6.1,6.3,8.1
					c3,2,6.6,3,10.8,3c4.6,0,8.4-1.2,11.3-3.5c2.9-2.4,4.3-5.5,4.3-9.5C210.8,60.5,210.7,59.6,210.5,58.8z"/>
				<path class="st1" d="M227.1,67.9V53.6h19V48h-19V34.1h20.6v-5.7h-26.6v45.1H248v-5.7H227.1z"/>
				<path class="st1" d="M255.1,28.4v5.7h13.3v39.4h5.9V34.1h13.3v-5.7H255.1z"/>
			</g>
		</g>
	</g>
</g>
</svg>
