<?xml version="1.0" encoding="utf-8"?>
<!-- Generator: Adobe Illustrator 26.0.1, SVG Export Plug-In . SVG Version: 6.00 Build 0)  -->
<svg version="1.1" id="Layer_1" xmlns="http://www.w3.org/2000/svg" xmlns:xlink="http://www.w3.org/1999/xlink" x="0px" y="0px"
	 viewBox="0 0 86 86" style="enable-background:new 0 0 86 86;" xml:space="preserve">
<style type="text/css">
	.st0{fill:#CE7028;}
	.st1{fill:#2B5C2D;}
</style>
<g>
	<polygon class="st0" points="63,37.9 70,37.9 67.9,36 56.9,25.7 49.7,18.9 45.7,15.3 42.2,12 38.7,15.3 27.6,25.7 16.5,36 
		14.5,37.9 21.5,37.9 42.2,18.5 	"/>
	<path class="st1" d="M43,1C22,1,4.7,17.3,3.1,37.9C3.1,38.9,3,39.9,3,41c0,22,17.9,40,40,40c0.9,0,1.8,0,2.8-0.1l0.8,4.2l6-5.2
		l4.3-3.8l-4.5-1.6L44,71.6l0.8,4.1c-0.6,0-1.2,0.1-1.8,0.1C23.8,75.7,8.2,60.1,8.2,41c0-1,0-2.1,0.1-3.1C10,20.2,24.9,6.2,43,6.2
		c19.2,0,34.7,15.6,34.7,34.8c0,10.1-4.3,19.1-11.2,25.5l-4.2-3.9l-3.5-3.3l-8-7.4l2.6-2.4l1.3-1.2l2.2-2l1-0.9l2.5-2.3L57,39.6
		l-3.5-3.3L53.1,36l0,0l-3.5-3.3l0,0l-3.9-3.6l-3.5-3.3l-2.2,2l-0.7,0.6l-0.7,0.6l-2.2,2l-1.3,1.3l-0.6,0.5l0,0l-2,1.8l-3.3,3.1
		L29.2,38l-4.5,4.2l-0.1,0.1l0,6.5v16.1h14.9v-4.8l0-4.1v-7.3l0.6-0.6l3.5-3.3l2.6-2.4l-3.5-3.3L40,41.7l-0.6,0.6l-2.9,2.7l-1.9,1.8
		v13.4h-5.3V44.4l3.3-3.1l2-1.9h0l1.5-1.4l2.6-2.4l0.7-0.6l0.7-0.6l2.2-2l3.9,3.6l3.5,3.3l3.9,3.6l-2.2,2L50,46.2l-2.6,2.4l-3.5,3.3
		l14.9,13.9l4,3.7l3.9,3.6c1.3-0.9,2.5-2,3.7-3.1C78.1,62.7,83,52.4,83,41C83,18.9,65,1,43,1z"/>
</g>
</svg>
